<svg width="1552" height="221" viewBox="0 0 1552 221" fill="none" xmlns="http://www.w3.org/2000/svg">
<path d="M1.79217 150.873C1.68991 150.647 1.5024 150.47 1.27029 150.381C1.03819 150.293 0.780609 150.3 0.554104 150.402C0.327599 150.503 0.150599 150.69 0.0619329 150.922C-0.0267388 151.154 -0.0197071 151.412 0.0808817 151.639C0.0808817 151.639 0.0808817 151.639 0.0808817 151.639C15.3194 176.767 42.9488 190.086 69.2863 199.777C114.803 215.566 163.036 219.622 210.937 219.919C429.799 232.95 588.638 52.7399 789.121 7.05416C802.949 5.22434 816.826 4.58536 830.817 5.25489C899.547 7.53035 964.333 37.4665 1017.9 79.8556C1072.03 119.556 1121.37 178.906 1194.38 181.814C1305.17 185.52 1371.97 82.8821 1464.29 43.451C1465.5 43.0876 1466.7 42.7391 1467.88 42.405C1494.69 35.0583 1524.99 31.1178 1550.44 43.0508C1550.65 43.1816 1550.9 43.2238 1551.15 43.1678C1551.39 43.1118 1551.6 42.9621 1551.73 42.7516C1551.86 42.5412 1551.9 42.287 1551.85 42.045C1551.79 41.803 1551.64 41.593 1551.43 41.4607C1551.43 41.4607 1551.43 41.4607 1551.43 41.4607C1524.88 28.7926 1494.46 32.83 1467.22 40.0267C1466.02 40.3566 1464.81 40.7011 1463.58 41.0605C1369.26 80.973 1302.63 182.037 1194.5 177.707C1058.24 156.849 981.443 -5.19801 831.056 0.268308C816.757 -0.421358 802.574 0.230199 788.465 2.09734C584.054 49.1765 428.7 228.4 210.937 216.593C163.257 216.556 115.271 212.788 70.1029 197.447C44.0068 188.122 16.4824 174.734 1.79217 150.873Z" fill="#C349D6"/>
</svg>
